<svg xmlns="http://www.w3.org/2000/svg" xmlns:xlink="http://www.w3.org/1999/xlink" width="698pt" height="548pt" viewBox="0.00 0.00 698.00 548.00">
<g id="graph0" class="graph" transform="scale(1 1) rotate(0) translate(4 544)">
<title>G</title>
<polygon fill="white" stroke="none" points="-4,4 -4,-544 694,-544 694,4 -4,4"/>
<!-- 3 -->
<g id="node1" class="node">
<title>3</title>
<ellipse fill="none" stroke="black" cx="320" cy="-450" rx="27" ry="18"/>
<text text-anchor="middle" x="320" y="-445.8" font-family="Times,serif" font-size="14.00">3</text>
</g>
<!-- 1 -->
<g id="node2" class="node">
<title>1</title>
<ellipse fill="none" stroke="black" cx="211" cy="-378" rx="27" ry="18"/>
<text text-anchor="middle" x="211" y="-373.8" font-family="Times,serif" font-size="14.00">1</text>
</g>
<!-- 3&#45;&gt;1 -->
<g id="edge1" class="edge">
<title>3-&gt;1</title>
<path fill="none" stroke="black" d="M293.51,-446.34C251.29,-438.47 205.68,-414.76 191.7,-397.7"/>
<polygon fill="black" stroke="black" points="195.04,-396.62 188.07,-388.64 188.54,-399.22 195.04,-396.62"/>
</g>
<!-- 3&#45;&gt;1 -->
<g id="edge19" class="edge">
<title>3-&gt;1</title>
<path fill="none" stroke="black" d="M293.8,-445.04C263.67,-437.06 228.56,-418.5 209.81,-403.08"/>
<polygon fill="black" stroke="black" points="212.39,-400.71 202.71,-396.42 207.6,-405.82 212.39,-400.71"/>
</g>
<!-- 3&#45;&gt;1 -->
<g id="edge40" class="edge">
<title>3-&gt;1</title>
<path fill="none" stroke="black" d="M294.79,-443.03C271.44,-434.3 242.05,-417.55 223.09,-403.37"/>
<polygon fill="black" stroke="black" points="225.39,-400.73 215.4,-397.2 221.01,-406.19 225.39,-400.73"/>
</g>
<!-- 3&#45;&gt;1 -->
<g id="edge45" class="edge">
<title>3-&gt;1</title>
<path fill="none" stroke="black" d="M296.85,-440.13C277.48,-430.3 251.11,-414.06 232.33,-400.79"/>
<polygon fill="black" stroke="black" points="234.64,-398.14 224.5,-395.07 230.5,-403.79 234.64,-398.14"/>
</g>
<!-- 3&#45;&gt;1 -->
<g id="edge61" class="edge">
<title>3-&gt;1</title>
<path fill="none" stroke="black" d="M301.01,-436.81C283.98,-425.87 258.74,-409.66 239.32,-397.19"/>
<polygon fill="black" stroke="black" points="241.35,-394.33 231.04,-391.87 237.57,-400.22 241.35,-394.33"/>
</g>
<!-- 3&#45;&gt;1 -->
<g id="edge75" class="edge">
<title>3-&gt;1</title>
<path fill="none" stroke="black" d="M307.71,-433.81C291.82,-421.72 265.57,-404.92 244.06,-393.11"/>
<polygon fill="black" stroke="black" points="245.76,-390.05 235.29,-388.47 242.49,-396.24 245.76,-390.05"/>
</g>
<!-- 3&#45;&gt;1 -->
<g id="edge85" class="edge">
<title>3-&gt;1</title>
<path fill="none" stroke="black" d="M316.72,-431.7C301.47,-418.38 272.21,-400.42 246.79,-389.28"/>
<polygon fill="black" stroke="black" points="248.17,-386.06 237.58,-385.53 245.52,-392.54 248.17,-386.06"/>
</g>
<!-- 3&#45;&gt;1 -->
<g id="edge89" class="edge">
<title>3-&gt;1</title>
<path fill="none" stroke="black" d="M329.52,-432.76C316.57,-418.11 281.07,-397.21 248.28,-386.29"/>
<polygon fill="black" stroke="black" points="249.33,-382.95 238.75,-383.42 247.32,-389.65 249.33,-382.95"/>
</g>
<!-- 3&#45;&gt;1 -->
<g id="edge95" class="edge">
<title>3-&gt;1</title>
<path fill="none" stroke="black" d="M343.5,-440.7C346.16,-426.05 297.22,-396.05 248.68,-384.09"/>
<polygon fill="black" stroke="black" points="249.69,-380.73 239.17,-382.02 248.2,-387.57 249.69,-380.73"/>
</g>
<!-- 6 -->
<g id="node4" class="node">
<title>6</title>
<ellipse fill="none" stroke="black" cx="387" cy="-306" rx="27" ry="18"/>
<text text-anchor="middle" x="387" y="-301.8" font-family="Times,serif" font-size="14.00">6</text>
</g>
<!-- 3&#45;&gt;6 -->
<g id="edge21" class="edge">
<title>3-&gt;6</title>
<path fill="none" stroke="black" d="M318.99,-431.59C325.68,-406.15 347.68,-358.77 365.68,-330.33"/>
<polygon fill="black" stroke="black" points="368.34,-332.65 371,-322.39 362.53,-328.75 368.34,-332.65"/>
</g>
<!-- 3&#45;&gt;6 -->
<g id="edge42" class="edge">
<title>3-&gt;6</title>
<path fill="none" stroke="black" d="M327.82,-432.43C339.26,-408.17 360.71,-362.71 374.4,-333.7"/>
<polygon fill="black" stroke="black" points="377.49,-335.37 378.59,-324.83 371.15,-332.38 377.49,-335.37"/>
</g>
<!-- 3&#45;&gt;6 -->
<g id="edge83" class="edge">
<title>3-&gt;6</title>
<path fill="none" stroke="black" d="M335.16,-434.87C351.85,-411.6 374.75,-364.83 384.87,-334.76"/>
<polygon fill="black" stroke="black" points="388.1,-336.18 387.65,-325.59 381.4,-334.15 388.1,-336.18"/>
</g>
<!-- 8 -->
<g id="node5" class="node">
<title>8</title>
<ellipse fill="none" stroke="black" cx="303" cy="-162" rx="27" ry="18"/>
<text text-anchor="middle" x="303" y="-157.8" font-family="Times,serif" font-size="14.00">8</text>
</g>
<!-- 3&#45;&gt;8 -->
<g id="edge63" class="edge">
<title>3-&gt;8</title>
<path fill="none" stroke="black" d="M315.57,-431.97C308.61,-384.59 300.38,-250.87 300.45,-191.73"/>
<polygon fill="black" stroke="black" points="303.95,-191.86 300.57,-181.82 296.95,-191.78 303.95,-191.86"/>
</g>
<!-- 3&#45;&gt;8 -->
<g id="edge93" class="edge">
<title>3-&gt;8</title>
<path fill="none" stroke="black" d="M322.4,-431.97C323.73,-384.48 316.03,-250.23 308.92,-191.32"/>
<polygon fill="black" stroke="black" points="312.39,-190.9 307.61,-181.45 305.45,-191.82 312.39,-190.9"/>
</g>
<!-- 9 -->
<g id="node3" class="node">
<title>9</title>
<ellipse fill="none" stroke="black" cx="441" cy="-90" rx="27" ry="18"/>
<text text-anchor="middle" x="441" y="-85.8" font-family="Times,serif" font-size="14.00">9</text>
</g>
<!-- 1&#45;&gt;9 -->
<g id="edge2" class="edge">
<title>1-&gt;9</title>
<path fill="none" stroke="black" d="M193.91,-363.61C170.85,-323.82 168.12,-205.26 231,-144 274.75,-101.37 351.73,-92.91 402.27,-91.31"/>
<polygon fill="black" stroke="black" points="402.14,-94.82 412.06,-91.09 401.98,-87.82 402.14,-94.82"/>
</g>
<!-- 1&#45;&gt;9 -->
<g id="edge58" class="edge">
<title>1-&gt;9</title>
<path fill="none" stroke="black" d="M201.02,-360.96C188.77,-318.79 187.46,-203.95 249,-144 289.51,-104.54 358.49,-94.35 402.45,-91.79"/>
<polygon fill="black" stroke="black" points="402.53,-95.29 412.35,-91.33 402.2,-88.3 402.53,-95.29"/>
</g>
<!-- 1&#45;&gt;9 -->
<g id="edge76" class="edge">
<title>1-&gt;9</title>
<path fill="none" stroke="black" d="M209.49,-359.71C206.75,-316.57 206.06,-203.37 267,-144 303.59,-108.35 363.41,-96.59 402.5,-92.77"/>
<polygon fill="black" stroke="black" points="402.73,-96.26 412.41,-91.94 402.15,-89.28 402.73,-96.26"/>
</g>
<!-- 1&#45;&gt;9 -->
<g id="edge86" class="edge">
<title>1-&gt;9</title>
<path fill="none" stroke="black" d="M218.22,-360.34C224.75,-317.68 223.76,-203.66 285,-144 317.31,-112.52 367.74,-99.67 402.88,-94.46"/>
<polygon fill="black" stroke="black" points="403.21,-97.95 412.66,-93.17 402.29,-91.01 403.21,-97.95"/>
</g>
<!-- 1&#45;&gt;9 -->
<g id="edge96" class="edge">
<title>1-&gt;9</title>
<path fill="none" stroke="black" d="M225.96,-362.75C242.82,-322.14 240.57,-204.82 303,-144 330.9,-116.82 372.31,-103.53 403.71,-97.05"/>
<polygon fill="black" stroke="black" points="404.12,-100.53 413.29,-95.24 402.82,-93.66 404.12,-100.53"/>
</g>
<!-- 1&#45;&gt;6 -->
<g id="edge31" class="edge">
<title>1-&gt;6</title>
<path fill="none" stroke="black" d="M195.85,-362.57C212.47,-352.02 250.08,-337.29 283,-324 296.92,-318.38 313.4,-311.47 348.26,-308.48"/>
<polygon fill="black" stroke="black" points="348.44,-311.98 358.17,-307.8 347.96,-305 348.44,-311.98"/>
</g>
<!-- 1&#45;&gt;6 -->
<g id="edge33" class="edge">
<title>1-&gt;6</title>
<path fill="none" stroke="black" d="M215.75,-360.02C236.31,-349.73 270.65,-336.25 301,-324 313.22,-319.07 327.41,-313.14 348.9,-309.75"/>
<polygon fill="black" stroke="black" points="349.09,-313.25 358.56,-308.49 348.19,-306.31 349.09,-313.25"/>
</g>
<!-- 1&#45;&gt;6 -->
<g id="edge38" class="edge">
<title>1-&gt;6</title>
<path fill="none" stroke="black" d="M225.83,-362.57C248.47,-352.02 286.08,-337.29 319,-324 328.04,-320.35 338.17,-316.15 349.35,-312.84"/>
<polygon fill="black" stroke="black" points="350.13,-316.26 358.94,-310.37 348.38,-309.48 350.13,-316.26"/>
</g>
<!-- 1&#45;&gt;6 -->
<g id="edge46" class="edge">
<title>1-&gt;6</title>
<path fill="none" stroke="black" d="M232.1,-366.19C257.33,-355.59 300.11,-338.89 337,-324 341.84,-322.05 346.98,-319.94 352.1,-317.89"/>
<polygon fill="black" stroke="black" points="353.01,-321.3 361.05,-314.4 350.47,-314.78 353.01,-321.3"/>
</g>
<!-- 1&#45;&gt;6 -->
<g id="edge65" class="edge">
<title>1-&gt;6</title>
<path fill="none" stroke="black" d="M235.36,-369.91C264.41,-359.84 313.44,-340.77 355,-324 355.78,-323.69 356.56,-323.37 357.35,-323.05"/>
<polygon fill="black" stroke="black" points="358.39,-326.41 366.29,-319.35 355.72,-319.94 358.39,-326.41"/>
</g>
<!-- 1&#45;&gt;6 -->
<g id="edge69" class="edge">
<title>1-&gt;6</title>
<path fill="none" stroke="black" d="M237.11,-372.67C269.86,-364.37 319.41,-345.48 365.37,-327.06"/>
<polygon fill="black" stroke="black" points="366.66,-330.31 374.63,-323.34 364.04,-323.82 366.66,-330.31"/>
</g>
<!-- 1&#45;&gt;6 -->
<g id="edge90" class="edge">
<title>1-&gt;6</title>
<path fill="none" stroke="black" d="M237.92,-374.4C279.16,-367.35 333.05,-347.18 379.69,-328.54"/>
<polygon fill="black" stroke="black" points="380.76,-331.89 388.73,-324.91 378.15,-325.39 380.76,-331.89"/>
</g>
<!-- 1&#45;&gt;6 -->
<g id="edge100" class="edge">
<title>1-&gt;6</title>
<path fill="none" stroke="black" d="M237.84,-375.42C294.57,-369.08 357.51,-344.78 409,-324 421.08,-319.13 435.08,-313.28 425.07,-309.87"/>
<polygon fill="black" stroke="black" points="425.94,-306.46 415.48,-308.2 424.73,-313.36 425.94,-306.46"/>
</g>
<!-- 1&#45;&gt;8 -->
<g id="edge5" class="edge">
<title>1-&gt;8</title>
<path fill="none" stroke="black" d="M198.54,-361.65C193.09,-332.18 208.74,-266.13 235,-216 242.84,-201.04 254.97,-186 268.94,-175.78"/>
<polygon fill="black" stroke="black" points="270.5,-178.94 277.07,-170.63 266.75,-173.02 270.5,-178.94"/>
</g>
<!-- 1&#45;&gt;8 -->
<g id="edge20" class="edge">
<title>1-&gt;8</title>
<path fill="none" stroke="black" d="M208.99,-359.78C211.74,-329.45 227.28,-265.09 253,-216 259.12,-204.32 267.85,-192.6 276.47,-183.16"/>
<polygon fill="black" stroke="black" points="278.71,-185.87 283.21,-176.28 273.71,-180.97 278.71,-185.87"/>
</g>
<!-- 1&#45;&gt;8 -->
<g id="edge62" class="edge">
<title>1-&gt;8</title>
<path fill="none" stroke="black" d="M219.43,-360.73C229.41,-330.81 245.01,-265.61 271,-216 275.97,-206.52 282.66,-197.01 288.78,-188.71"/>
<polygon fill="black" stroke="black" points="291.49,-190.93 294.65,-180.82 285.87,-186.75 291.49,-190.93"/>
</g>
<!-- 1&#45;&gt;8 -->
<g id="edge72" class="edge">
<title>1-&gt;8</title>
<path fill="none" stroke="black" d="M228.03,-363.87C246.28,-335.61 262.06,-267.42 289,-216 293.86,-206.73 300.37,-197.42 305.6,-189.26"/>
<polygon fill="black" stroke="black" points="308.45,-191.3 310.54,-180.91 302.43,-187.73 308.45,-191.3"/>
</g>
<!-- 0 -->
<g id="node6" class="node">
<title>0</title>
<ellipse fill="none" stroke="black" cx="335" cy="-18" rx="27" ry="18"/>
<text text-anchor="middle" x="335" y="-13.8" font-family="Times,serif" font-size="14.00">0</text>
</g>
<!-- 1&#45;&gt;0 -->
<g id="edge24" class="edge">
<title>1-&gt;0</title>
<path fill="none" stroke="black" d="M184.84,-373.02C127.41,-361.19 0,-321.53 0,-235 0,-235 0,-235 0,-161 0,-36.18 207.23,-20.37 296.1,-18.9"/>
<polygon fill="black" stroke="black" points="296.1,-22.4 306.06,-18.79 296.03,-15.4 296.1,-22.4"/>
</g>
<!-- 1&#45;&gt;0 -->
<g id="edge28" class="edge">
<title>1-&gt;0</title>
<path fill="none" stroke="black" d="M185.77,-371.12C133.45,-357.27 18,-317.37 18,-235 18,-235 18,-235 18,-161 18,-40.32 211.72,-21.54 296.29,-19.09"/>
<polygon fill="black" stroke="black" points="296.26,-22.6 306.19,-18.88 296.11,-15.6 296.26,-22.6"/>
</g>
<!-- 1&#45;&gt;0 -->
<g id="edge52" class="edge">
<title>1-&gt;0</title>
<path fill="none" stroke="black" d="M187.48,-368.57C138.98,-352.7 36,-312.79 36,-235 36,-235 36,-235 36,-161 36,-45.01 214.93,-23.16 296.3,-19.46"/>
<polygon fill="black" stroke="black" points="296.42,-22.96 306.28,-19.09 296.16,-15.96 296.42,-22.96"/>
</g>
<!-- 2 -->
<g id="node7" class="node">
<title>2</title>
<ellipse fill="none" stroke="black" cx="495" cy="-234" rx="27" ry="18"/>
<text text-anchor="middle" x="495" y="-229.8" font-family="Times,serif" font-size="14.00">2</text>
</g>
<!-- 1&#45;&gt;2 -->
<g id="edge9" class="edge">
<title>1-&gt;2</title>
<path fill="none" stroke="black" d="M228.4,-364.2C254.2,-345.65 304.53,-310.99 351,-288 386.89,-270.24 430.27,-255.07 459.98,-245.56"/>
<polygon fill="black" stroke="black" points="460.72,-249 469.21,-242.66 458.62,-242.32 460.72,-249"/>
</g>
<!-- 9&#45;&gt;0 -->
<g id="edge8" class="edge">
<title>9-&gt;0</title>
<path fill="none" stroke="black" d="M416.84,-81.64C396.16,-72.37 369.32,-56.01 351.12,-42.33"/>
<polygon fill="black" stroke="black" points="353.66,-39.89 343.65,-36.42 349.32,-45.37 353.66,-39.89"/>
</g>
<!-- 9&#45;&gt;0 -->
<g id="edge56" class="edge">
<title>9-&gt;0</title>
<path fill="none" stroke="black" d="M419.89,-78.37C402.47,-68.06 377.98,-52.15 359.68,-39.39"/>
<polygon fill="black" stroke="black" points="361.91,-36.68 351.73,-33.75 357.86,-42.39 361.91,-36.68"/>
</g>
<!-- 9&#45;&gt;0 -->
<g id="edge78" class="edge">
<title>9-&gt;0</title>
<path fill="none" stroke="black" d="M425.56,-75.17C409.84,-63.77 385.42,-47.57 365.81,-35.49"/>
<polygon fill="black" stroke="black" points="367.72,-32.56 357.36,-30.39 364.1,-38.55 367.72,-32.56"/>
</g>
<!-- 9&#45;&gt;0 -->
<g id="edge82" class="edge">
<title>9-&gt;0</title>
<path fill="none" stroke="black" d="M433.4,-72.41C418.49,-59.85 392.22,-42.86 369.76,-31.44"/>
<polygon fill="black" stroke="black" points="371.32,-28.31 360.79,-27.13 368.29,-34.62 371.32,-28.31"/>
</g>
<!-- 6&#45;&gt;9 -->
<g id="edge7" class="edge">
<title>6-&gt;9</title>
<path fill="none" stroke="black" d="M413.82,-301.97C444.72,-297.13 494.29,-284.56 522,-252 553.37,-215.14 561.29,-185.27 536,-144 522.75,-122.37 497.59,-109.22 476.39,-101.43"/>
<polygon fill="black" stroke="black" points="477.77,-98.2 467.18,-98.31 475.53,-104.84 477.77,-98.2"/>
</g>
<!-- 6&#45;&gt;9 -->
<g id="edge54" class="edge">
<title>6-&gt;9</title>
<path fill="none" stroke="black" d="M414.03,-303.53C449.05,-300.13 508.58,-288.92 540,-252 571.37,-215.14 579.29,-185.27 554,-144 537.97,-117.84 504.54,-104.09 478.02,-97.22"/>
<polygon fill="black" stroke="black" points="479.16,-93.89 468.63,-95.02 477.57,-100.7 479.16,-93.89"/>
</g>
<!-- 6&#45;&gt;8 -->
<g id="edge3" class="edge">
<title>6-&gt;8</title>
<path fill="none" stroke="black" d="M362.91,-297.37C327.71,-276.93 290.26,-220.33 286,-187.47"/>
<polygon fill="black" stroke="black" points="289.49,-187.7 286.05,-177.68 282.49,-187.66 289.49,-187.7"/>
</g>
<!-- 6&#45;&gt;8 -->
<g id="edge15" class="edge">
<title>6-&gt;8</title>
<path fill="none" stroke="black" d="M365.87,-294.56C339.77,-272.86 307.55,-222.29 297.42,-190.55"/>
<polygon fill="black" stroke="black" points="300.83,-189.75 295.04,-180.87 294.03,-191.42 300.83,-189.75"/>
</g>
<!-- 6&#45;&gt;8 -->
<g id="edge22" class="edge">
<title>6-&gt;8</title>
<path fill="none" stroke="black" d="M370.59,-291.38C351.07,-268.26 322.18,-220.89 308.38,-190.6"/>
<polygon fill="black" stroke="black" points="311.73,-189.54 304.62,-181.69 305.28,-192.26 311.73,-189.54"/>
</g>
<!-- 6&#45;&gt;8 -->
<g id="edge32" class="edge">
<title>6-&gt;8</title>
<path fill="none" stroke="black" d="M377.36,-288.71C362.93,-264.32 335.57,-218.05 318.36,-188.97"/>
<polygon fill="black" stroke="black" points="321.4,-187.23 313.29,-180.4 315.37,-190.79 321.4,-187.23"/>
</g>
<!-- 6&#45;&gt;8 -->
<g id="edge35" class="edge">
<title>6-&gt;8</title>
<path fill="none" stroke="black" d="M385.93,-287.59C376.09,-261.9 347.99,-213.85 326.5,-185.52"/>
<polygon fill="black" stroke="black" points="329.41,-183.56 320.45,-177.91 323.94,-187.92 329.41,-183.56"/>
</g>
<!-- 6&#45;&gt;8 -->
<g id="edge59" class="edge">
<title>6-&gt;8</title>
<path fill="none" stroke="black" d="M395.3,-288.43C391.09,-261.65 360.19,-209.03 332.57,-181.22"/>
<polygon fill="black" stroke="black" points="334.97,-178.68 325.24,-174.47 330.22,-183.82 334.97,-178.68"/>
</g>
<!-- 6&#45;&gt;8 -->
<g id="edge79" class="edge">
<title>6-&gt;8</title>
<path fill="none" stroke="black" d="M403.97,-291.64C408.75,-264.72 373.07,-204.18 336.45,-176.85"/>
<polygon fill="black" stroke="black" points="338.67,-174.13 328.4,-171.5 334.79,-179.95 338.67,-174.13"/>
</g>
<!-- 6&#45;&gt;0 -->
<g id="edge34" class="edge">
<title>6-&gt;0</title>
<path fill="none" stroke="black" d="M414.31,-305.2C452.33,-303.48 519.97,-293.95 556,-252 587.41,-215.43 587.77,-187.01 566,-144 528.27,-69.45 427.13,-38.16 371.91,-25.99"/>
<polygon fill="black" stroke="black" points="372.85,-22.61 362.35,-23.99 371.42,-29.47 372.85,-22.61"/>
</g>
<!-- 6&#45;&gt;0 -->
<g id="edge88" class="edge">
<title>6-&gt;0</title>
<path fill="none" stroke="black" d="M414.41,-305.51C456.19,-305.08 534.29,-298.23 574,-252 605.41,-215.43 605.77,-187.01 584,-144 543.92,-64.82 432.31,-34.43 372.94,-23.94"/>
<polygon fill="black" stroke="black" points="373.73,-20.52 363.29,-22.35 372.59,-27.43 373.73,-20.52"/>
</g>
<!-- 6&#45;&gt;2 -->
<g id="edge11" class="edge">
<title>6-&gt;2</title>
<path fill="none" stroke="black" d="M377.24,-288.76C389.99,-274.11 425.19,-253.21 457.82,-242.29"/>
<polygon fill="black" stroke="black" points="458.75,-245.67 467.31,-239.43 456.72,-238.96 458.75,-245.67"/>
</g>
<!-- 6&#45;&gt;2 -->
<g id="edge14" class="edge">
<title>6-&gt;2</title>
<path fill="none" stroke="black" d="M390.03,-287.7C405.09,-274.38 434.09,-256.42 459.36,-245.28"/>
<polygon fill="black" stroke="black" points="460.58,-248.56 468.5,-241.53 457.92,-242.08 460.58,-248.56"/>
</g>
<!-- 6&#45;&gt;2 -->
<g id="edge18" class="edge">
<title>6-&gt;2</title>
<path fill="none" stroke="black" d="M399.08,-289.81C414.79,-277.72 440.8,-260.92 462.14,-249.11"/>
<polygon fill="black" stroke="black" points="463.66,-252.27 470.84,-244.47 460.37,-246.09 463.66,-252.27"/>
</g>
<!-- 6&#45;&gt;2 -->
<g id="edge29" class="edge">
<title>6-&gt;2</title>
<path fill="none" stroke="black" d="M405.81,-292.81C422.59,-281.93 447.39,-265.86 466.59,-253.42"/>
<polygon fill="black" stroke="black" points="468.28,-256.49 474.77,-248.11 464.48,-250.61 468.28,-256.49"/>
</g>
<!-- 6&#45;&gt;2 -->
<g id="edge66" class="edge">
<title>6-&gt;2</title>
<path fill="none" stroke="black" d="M410.02,-296.13C429.04,-286.4 454.82,-270.42 473.37,-257.23"/>
<polygon fill="black" stroke="black" points="475.39,-260.09 481.37,-251.34 471.24,-254.45 475.39,-260.09"/>
</g>
<!-- 6&#45;&gt;2 -->
<g id="edge70" class="edge">
<title>6-&gt;2</title>
<path fill="none" stroke="black" d="M412.13,-299.03C435.35,-290.3 464.5,-273.55 483.26,-259.37"/>
<polygon fill="black" stroke="black" points="485.3,-262.23 490.85,-253.2 480.88,-256.79 485.3,-262.23"/>
</g>
<!-- 6&#45;&gt;2 -->
<g id="edge84" class="edge">
<title>6-&gt;2</title>
<path fill="none" stroke="black" d="M413.15,-301.04C443.2,-293.04 478.11,-274.44 496.62,-259.01"/>
<polygon fill="black" stroke="black" points="499.01,-261.58 503.8,-252.13 494.16,-256.53 499.01,-261.58"/>
</g>
<!-- 8&#45;&gt;9 -->
<g id="edge16" class="edge">
<title>8-&gt;9</title>
<path fill="none" stroke="black" d="M312.07,-144.59C333.4,-130.63 373.38,-111.13 404.72,-99.91"/>
<polygon fill="black" stroke="black" points="405.6,-103.3 413.96,-96.79 403.37,-96.67 405.6,-103.3"/>
</g>
<!-- 8&#45;&gt;9 -->
<g id="edge36" class="edge">
<title>8-&gt;9</title>
<path fill="none" stroke="black" d="M319.26,-147.17C341.03,-134.37 378.36,-115.51 406.32,-103.24"/>
<polygon fill="black" stroke="black" points="407.68,-106.46 415.51,-99.32 404.94,-100.02 407.68,-106.46"/>
</g>
<!-- 8&#45;&gt;9 -->
<g id="edge64" class="edge">
<title>8-&gt;9</title>
<path fill="none" stroke="black" d="M323.96,-150.37C346.76,-138.8 383.44,-120.2 409.66,-106.89"/>
<polygon fill="black" stroke="black" points="411.16,-110.06 418.49,-102.42 407.99,-103.82 411.16,-110.06"/>
</g>
<!-- 8&#45;&gt;9 -->
<g id="edge68" class="edge">
<title>8-&gt;9</title>
<path fill="none" stroke="black" d="M327.16,-153.24C352.1,-142.98 389.57,-124.54 415.01,-110.39"/>
<polygon fill="black" stroke="black" points="416.51,-113.56 423.46,-105.56 413.04,-107.48 416.51,-113.56"/>
</g>
<!-- 8&#45;&gt;9 -->
<g id="edge81" class="edge">
<title>8-&gt;9</title>
<path fill="none" stroke="black" d="M328.47,-155.74C357.02,-146.8 397.2,-128.14 422.65,-113.15"/>
<polygon fill="black" stroke="black" points="424.32,-116.23 430.98,-107.99 420.63,-110.28 424.32,-116.23"/>
</g>
<!-- 8&#45;&gt;0 -->
<g id="edge4" class="edge">
<title>8-&gt;0</title>
<path fill="none" stroke="black" d="M289.07,-146.34C282.73,-121.24 293.35,-69.92 310.04,-40.67"/>
<polygon fill="black" stroke="black" points="312.79,-42.87 315.35,-32.59 306.94,-39.03 312.79,-42.87"/>
</g>
<!-- 8&#45;&gt;0 -->
<g id="edge6" class="edge">
<title>8-&gt;0</title>
<path fill="none" stroke="black" d="M297.69,-143.87C298.03,-119.26 307.79,-73.68 318.45,-44.93"/>
<polygon fill="black" stroke="black" points="321.61,-46.44 322.15,-35.85 315.13,-43.79 321.61,-46.44"/>
</g>
<!-- 8&#45;&gt;0 -->
<g id="edge60" class="edge">
<title>8-&gt;0</title>
<path fill="none" stroke="black" d="M306.86,-143.87C312.27,-119.88 322.16,-75.99 328.65,-47.16"/>
<polygon fill="black" stroke="black" points="332.01,-48.19 330.79,-37.67 325.18,-46.65 332.01,-48.19"/>
</g>
<!-- 8&#45;&gt;0 -->
<g id="edge80" class="edge">
<title>8-&gt;0</title>
<path fill="none" stroke="black" d="M315.29,-145.53C326.03,-121.9 337,-76.46 339.69,-46.95"/>
<polygon fill="black" stroke="black" points="343.17,-47.45 340.23,-37.27 336.18,-47.07 343.17,-47.45"/>
</g>
<!-- 8&#45;&gt;0 -->
<g id="edge94" class="edge">
<title>8-&gt;0</title>
<path fill="none" stroke="black" d="M321.65,-148.89C339.48,-125.92 352.65,-75.55 350.57,-44.72"/>
<polygon fill="black" stroke="black" points="354.07,-44.46 349.13,-35.08 347.14,-45.49 354.07,-44.46"/>
</g>
<!-- 2&#45;&gt;9 -->
<g id="edge10" class="edge">
<title>2-&gt;9</title>
<path fill="none" stroke="black" d="M470.28,-225.96C433.59,-205.22 406.12,-143.83 414.4,-111.48"/>
<polygon fill="black" stroke="black" points="417.58,-112.93 418.49,-102.38 411.2,-110.06 417.58,-112.93"/>
</g>
<!-- 2&#45;&gt;9 -->
<g id="edge30" class="edge">
<title>2-&gt;9</title>
<path fill="none" stroke="black" d="M473.13,-223.24C447.39,-201.44 424.35,-148.23 424.07,-116.35"/>
<polygon fill="black" stroke="black" points="427.56,-116.7 425.06,-106.41 420.59,-116.01 427.56,-116.7"/>
</g>
<!-- 2&#45;&gt;9 -->
<g id="edge44" class="edge">
<title>2-&gt;9</title>
<path fill="none" stroke="black" d="M477.68,-219.9C460.03,-196.98 440.49,-149.18 435.09,-118.67"/>
<polygon fill="black" stroke="black" points="438.6,-118.54 433.91,-109.03 431.65,-119.39 438.6,-118.54"/>
</g>
<!-- 2&#45;&gt;9 -->
<g id="edge48" class="edge">
<title>2-&gt;9</title>
<path fill="none" stroke="black" d="M484.45,-216.99C472.73,-193.17 455.24,-148.07 446.08,-118.79"/>
<polygon fill="black" stroke="black" points="449.53,-118.1 443.34,-109.51 442.82,-120.09 449.53,-118.1"/>
</g>
<!-- 2&#45;&gt;9 -->
<g id="edge50" class="edge">
<title>2-&gt;9</title>
<path fill="none" stroke="black" d="M492.99,-215.59C486.18,-190.9 469.17,-145.53 456.2,-116.89"/>
<polygon fill="black" stroke="black" points="459.52,-115.73 452.1,-108.18 453.19,-118.72 459.52,-115.73"/>
</g>
<!-- 2&#45;&gt;9 -->
<g id="edge55" class="edge">
<title>2-&gt;9</title>
<path fill="none" stroke="black" d="M502.27,-216.43C500.88,-190.91 482.81,-141.93 464.7,-113.31"/>
<polygon fill="black" stroke="black" points="467.76,-111.58 459.19,-105.36 462.01,-115.57 467.76,-111.58"/>
</g>
<!-- 2&#45;&gt;9 -->
<g id="edge74" class="edge">
<title>2-&gt;9</title>
<path fill="none" stroke="black" d="M510.78,-219.13C517.07,-193.2 496.6,-137.42 471.02,-108.78"/>
<polygon fill="black" stroke="black" points="473.6,-106.41 464.02,-101.88 468.69,-111.4 473.6,-106.41"/>
</g>
<!-- 2&#45;&gt;9 -->
<g id="edge92" class="edge">
<title>2-&gt;9</title>
<path fill="none" stroke="black" d="M516.71,-223.24C535.11,-198.4 511.35,-132.76 475.13,-104.38"/>
<polygon fill="black" stroke="black" points="477.18,-101.54 466.93,-98.86 473.27,-107.35 477.18,-101.54"/>
</g>
<!-- 2&#45;&gt;8 -->
<g id="edge67" class="edge">
<title>2-&gt;8</title>
<path fill="none" stroke="black" d="M470.55,-225.93C462.27,-222.76 453.24,-219.05 445,-216 396.76,-198.14 383.24,-197.86 335,-180 334.21,-179.71 333.42,-179.41 332.62,-179.11"/>
<polygon fill="black" stroke="black" points="334.22,-175.98 323.63,-175.55 331.64,-182.48 334.22,-175.98"/>
</g>
<!-- 2&#45;&gt;8 -->
<g id="edge98" class="edge">
<title>2-&gt;8</title>
<path fill="none" stroke="black" d="M475.78,-221.01C471.59,-219.27 467.19,-217.55 463,-216 414.76,-198.14 401.24,-197.86 353,-180 348.11,-178.19 342.94,-176.15 337.81,-174.12"/>
<polygon fill="black" stroke="black" points="339.45,-171.01 328.86,-170.62 336.9,-177.52 339.45,-171.01"/>
</g>
<!-- 2&#45;&gt;0 -->
<g id="edge12" class="edge">
<title>2-&gt;0</title>
<path fill="none" stroke="black" d="M480.66,-218.63C450.17,-182.99 380.45,-90.18 349.69,-44.78"/>
<polygon fill="black" stroke="black" points="352.7,-42.98 344.25,-36.59 346.87,-46.86 352.7,-42.98"/>
</g>
<!-- 2&#45;&gt;0 -->
<g id="edge26" class="edge">
<title>2-&gt;0</title>
<path fill="none" stroke="black" d="M486.52,-216.56C462.01,-178.81 392.68,-85.82 356.77,-42.24"/>
<polygon fill="black" stroke="black" points="359.52,-40.07 350.41,-34.65 354.15,-44.56 359.52,-40.07"/>
</g>
<!-- 7 -->
<g id="node8" class="node">
<title>7</title>
<ellipse fill="none" stroke="black" cx="423" cy="-522" rx="27" ry="18"/>
<text text-anchor="middle" x="423" y="-517.8" font-family="Times,serif" font-size="14.00">7</text>
</g>
<!-- 7&#45;&gt;3 -->
<g id="edge39" class="edge">
<title>7-&gt;3</title>
<path fill="none" stroke="black" d="M402.35,-510.37C385.55,-500.17 362.07,-484.49 344.39,-471.81"/>
<polygon fill="black" stroke="black" points="346.6,-469.09 336.46,-466.02 342.47,-474.74 346.6,-469.09"/>
</g>
<!-- 7&#45;&gt;3 -->
<g id="edge41" class="edge">
<title>7-&gt;3</title>
<path fill="none" stroke="black" d="M407.71,-506.83C392.56,-495.52 369.3,-479.65 350.45,-467.72"/>
<polygon fill="black" stroke="black" points="352.42,-464.82 342.08,-462.51 348.72,-470.76 352.42,-464.82"/>
</g>
<!-- 7&#45;&gt;1 -->
<g id="edge23" class="edge">
<title>7-&gt;1</title>
<path fill="none" stroke="black" d="M396,-519.94C343.42,-515.99 275.38,-500.67 230,-468 203.01,-448.57 180.27,-416.79 182.48,-396.93"/>
<polygon fill="black" stroke="black" points="185.61,-398.51 186.43,-387.95 179.2,-395.69 185.61,-398.51"/>
</g>
<!-- 7&#45;&gt;1 -->
<g id="edge27" class="edge">
<title>7-&gt;1</title>
<path fill="none" stroke="black" d="M395.94,-519.18C353.94,-514.24 290.86,-498.86 248,-468 224.09,-450.79 203.52,-423.89 197.23,-404.17"/>
<polygon fill="black" stroke="black" points="200.7,-403.7 195.52,-394.45 193.81,-404.91 200.7,-403.7"/>
</g>
<!-- 7&#45;&gt;1 -->
<g id="edge37" class="edge">
<title>7-&gt;1</title>
<path fill="none" stroke="black" d="M396.26,-517.77C361.9,-511.66 305.4,-496.37 266,-468 243.12,-451.52 223.28,-426.17 213.1,-406.74"/>
<polygon fill="black" stroke="black" points="216.34,-405.39 209,-397.74 209.97,-408.29 216.34,-405.39"/>
</g>
<!-- 7&#45;&gt;1 -->
<g id="edge51" class="edge">
<title>7-&gt;1</title>
<path fill="none" stroke="black" d="M397.5,-515.51C368.07,-508.26 319.21,-493.35 284,-468 260.38,-451 240.02,-424.54 226.84,-404.89"/>
<polygon fill="black" stroke="black" points="229.83,-403.07 221.45,-396.58 223.96,-406.88 229.83,-403.07"/>
</g>
<!-- 7&#45;&gt;1 -->
<g id="edge57" class="edge">
<title>7-&gt;1</title>
<path fill="none" stroke="black" d="M399.67,-512.26C373.51,-504.17 332.6,-490.03 302,-468 276.26,-449.47 254.38,-419.71 237.18,-399.77"/>
<polygon fill="black" stroke="black" points="239.92,-397.58 230.62,-392.49 234.72,-402.27 239.92,-397.58"/>
</g>
<!-- 7&#45;&gt;1 -->
<g id="edge71" class="edge">
<title>7-&gt;1</title>
<path fill="none" stroke="black" d="M404.29,-508.69C380.76,-500.26 346.51,-487.09 320,-468 291.53,-447.5 267.77,-413.26 244.05,-393.76"/>
<polygon fill="black" stroke="black" points="246.29,-391.07 236.16,-387.97 242.15,-396.71 246.29,-391.07"/>
</g>
<!-- 7&#45;&gt;1 -->
<g id="edge99" class="edge">
<title>7-&gt;1</title>
<path fill="none" stroke="black" d="M411.44,-505.26C390.22,-496.83 361.16,-484.68 338,-468 306.71,-445.47 281.12,-406.34 247.29,-388.44"/>
<polygon fill="black" stroke="black" points="248.95,-385.35 238.39,-384.41 246.06,-391.72 248.95,-385.35"/>
</g>
<!-- 7&#45;&gt;9 -->
<g id="edge77" class="edge">
<title>7-&gt;9</title>
<path fill="none" stroke="black" d="M450.07,-519.2C517.95,-513.07 690,-486.89 690,-379 690,-379 690,-379 690,-233 690,-137.03 548.7,-105.07 478.99,-95.14"/>
<polygon fill="black" stroke="black" points="479.52,-91.68 469.15,-93.83 478.6,-98.62 479.52,-91.68"/>
</g>
<!-- 7&#45;&gt;6 -->
<g id="edge13" class="edge">
<title>7-&gt;6</title>
<path fill="none" stroke="black" d="M409.47,-505.95C392.33,-470.4 376.18,-380.74 377.51,-334.91"/>
<polygon fill="black" stroke="black" points="381,-335.22 378.23,-325 374.02,-334.72 381,-335.22"/>
</g>
<!-- 7&#45;&gt;6 -->
<g id="edge17" class="edge">
<title>7-&gt;6</title>
<path fill="none" stroke="black" d="M416.33,-504.21C406.66,-467.74 391.75,-380.96 387.05,-335.65"/>
<polygon fill="black" stroke="black" points="390.54,-335.46 386.16,-325.82 383.57,-336.09 390.54,-335.46"/>
</g>
<!-- 7&#45;&gt;6 -->
<g id="edge53" class="edge">
<title>7-&gt;6</title>
<path fill="none" stroke="black" d="M423.99,-503.85C421.31,-466.98 406.94,-379.86 396.42,-334.91"/>
<polygon fill="black" stroke="black" points="399.87,-334.27 394.07,-325.4 393.07,-335.95 399.87,-334.27"/>
</g>
<!-- 7&#45;&gt;6 -->
<g id="edge87" class="edge">
<title>7-&gt;6</title>
<path fill="none" stroke="black" d="M431.66,-504.56C436.37,-467.47 421.92,-377.03 405,-332.56"/>
<polygon fill="black" stroke="black" points="408.26,-331.28 401.13,-323.44 401.82,-334.02 408.26,-331.28"/>
</g>
<!-- 7&#45;&gt;2 -->
<g id="edge25" class="edge">
<title>7-&gt;2</title>
<path fill="none" stroke="black" d="M396.7,-517.08C377.5,-508.57 391.04,-487.57 398,-468 425.55,-390.5 436.3,-291.91 465.42,-252.46"/>
<polygon fill="black" stroke="black" points="467.77,-255.09 471.79,-245.29 462.53,-250.44 467.77,-255.09"/>
</g>
<!-- 7&#45;&gt;2 -->
<g id="edge43" class="edge">
<title>7-&gt;2</title>
<path fill="none" stroke="black" d="M402.46,-510.11C400.95,-499.73 410.52,-483.42 416,-468 442.31,-394 453.29,-300.77 472.11,-258.16"/>
<polygon fill="black" stroke="black" points="475.19,-259.84 476.67,-249.34 468.97,-256.62 475.19,-259.84"/>
</g>
<!-- 7&#45;&gt;2 -->
<g id="edge47" class="edge">
<title>7-&gt;2</title>
<path fill="none" stroke="black" d="M418.38,-503.99C422.25,-493.9 429.5,-480.65 434,-468 459.56,-396.11 470.65,-306.07 481.68,-261.93"/>
<polygon fill="black" stroke="black" points="485,-263.02 484.31,-252.45 478.26,-261.15 485,-263.02"/>
</g>
<!-- 7&#45;&gt;2 -->
<g id="edge49" class="edge">
<title>7-&gt;2</title>
<path fill="none" stroke="black" d="M433.56,-504.92C439.8,-494.73 447.36,-481.05 452,-468 477.19,-397.15 488.33,-308.67 492.64,-263.87"/>
<polygon fill="black" stroke="black" points="496.12,-264.23 493.55,-253.95 489.15,-263.59 496.12,-264.23"/>
</g>
<!-- 7&#45;&gt;2 -->
<g id="edge73" class="edge">
<title>7-&gt;2</title>
<path fill="none" stroke="black" d="M443.82,-510.51C454.7,-500.14 464.45,-483.61 470,-468 495.38,-396.61 506.5,-307.34 504.03,-262.87"/>
<polygon fill="black" stroke="black" points="507.53,-262.7 503.12,-253.07 500.57,-263.35 507.53,-262.7"/>
</g>
<!-- 7&#45;&gt;2 -->
<g id="edge91" class="edge">
<title>7-&gt;2</title>
<path fill="none" stroke="black" d="M448.72,-515.55C468.98,-506.24 481.43,-486.48 488,-468 514.01,-394.84 525.04,-302.9 514.61,-259.64"/>
<polygon fill="black" stroke="black" points="517.97,-258.66 511.56,-250.23 511.31,-260.82 517.97,-258.66"/>
</g>
<!-- 7&#45;&gt;2 -->
<g id="edge97" class="edge">
<title>7-&gt;2</title>
<path fill="none" stroke="black" d="M449.45,-518.39C483.97,-510.91 498.66,-488.66 506,-468 533.07,-391.86 543.91,-295.37 523.1,-254.6"/>
<polygon fill="black" stroke="black" points="526.04,-252.7 517.58,-246.32 520.21,-256.58 526.04,-252.7"/>
</g>
</g>
</svg>